<svg width="20" height="20" viewBox="0 0 20 20" fill="none" xmlns="http://www.w3.org/2000/svg">
<g clip-path="url(#clip0_10551_11962)">
<path d="M16.25 0H3.75C1.67893 0 0 1.67893 0 3.75V16.25C0 18.3211 1.67893 20 3.75 20H16.25C18.3211 20 20 18.3211 20 16.25V3.75C20 1.67893 18.3211 0 16.25 0Z" fill="#2C5FF6"/>
<path fill-rule="evenodd" clip-rule="evenodd" d="M10 17C13.8643 17 17 13.8643 17 10C17 6.13571 13.8643 3 10 3C6.13571 3 3 6.13571 3 10C3 13.8643 6.13571 17 10 17ZM8.25 7.71429C7.95714 7.71429 7.71429 7.95714 7.71429 8.25V11.75C7.71429 12.0429 7.95714 12.2857 8.25 12.2857H11.75C12.0429 12.2857 12.2857 12.0429 12.2857 11.75V8.25C12.2857 7.95714 12.0429 7.71429 11.75 7.71429H8.25Z" fill="white"/>
</g>
<defs>
<clipPath id="clip0_10551_11962">
<rect width="20" height="20" fill="white"/>
</clipPath>
</defs>
</svg>
