<svg width="20" height="20" viewBox="0 0 20 20" fill="none" xmlns="http://www.w3.org/2000/svg">
<path d="M16.25 0H3.75C1.67893 0 0 1.67893 0 3.75V16.25C0 18.3211 1.67893 20 3.75 20H16.25C18.3211 20 20 18.3211 20 16.25V3.75C20 1.67893 18.3211 0 16.25 0Z" fill="#6C32FB"/>
<path fill-rule="evenodd" clip-rule="evenodd" d="M4 6C4 4.89543 4.89543 4 6 4H13.5C14.0523 4 14.5 4.44772 14.5 5C14.5 5.55228 14.0523 6 13.5 6H6V7H13C14.6569 7 16 8.34315 16 10V13C16 14.6569 14.6569 16 13 16H7C5.34315 16 4 14.6569 4 13V8.5C4 8.33933 4.03789 8.18751 4.10522 8.05299C4.03732 7.88188 4 7.6953 4 7.5V6ZM6 9V13C6 13.5523 6.44772 14 7 14H13C13.5523 14 14 13.5523 14 13V10C14 9.44772 13.5523 9 13 9H6Z" fill="white"/>
<path d="M13 11C13 11.5523 12.5523 12 12 12C11.4477 12 11 11.5523 11 11C11 10.4477 11.4477 10 12 10C12.5523 10 13 10.4477 13 11Z" fill="white"/>
<path d="M4 7H6V9H4V7Z" fill="white"/>
<path fill-rule="evenodd" clip-rule="evenodd" d="M4 6C4 4.89543 4.89543 4 6 4H14C14.5523 4 15 4.44772 15 5C15 5.55228 14.5523 6 14 6H6.5C6.22386 6 6 6.22386 6 6.5C6 6.77614 6.22386 7 6.5 7H14C15.1046 7 16 7.89543 16 9V14C16 15.1046 15.1046 16 14 16H6C4.89543 16 4 15.1046 4 14V6ZM14 10C14 9.44772 13.5523 9 13 9H7C6.44772 9 6 9.44772 6 10V13C6 13.5523 6.44772 14 7 14H13C13.5523 14 14 13.5523 14 13V10Z" fill="white"/>
<path fill-rule="evenodd" clip-rule="evenodd" d="M4 6C4 4.89543 4.89543 4 6 4H14C14.5523 4 15 4.44772 15 5C15 5.55228 14.5523 6 14 6H6.5C6.22386 6 6 6.22386 6 6.5C6 6.77614 6.22386 7 6.5 7H14C15.1046 7 16 7.89543 16 9V14C16 15.1046 15.1046 16 14 16H6C4.89543 16 4 15.1046 4 14V6ZM14 10C14 9.44772 13.5523 9 13 9H7C6.44772 9 6 9.44772 6 10V13C6 13.5523 6.44772 14 7 14H13C13.5523 14 14 13.5523 14 13V10Z" fill="white"/>
<path fill-rule="evenodd" clip-rule="evenodd" d="M4 6C4 4.89543 4.89543 4 6 4H14C14.5523 4 15 4.44772 15 5C15 5.55228 14.5523 6 14 6H6.5C6.22386 6 6 6.22386 6 6.5C6 6.77614 6.22386 7 6.5 7H14C15.1046 7 16 7.89543 16 9V14C16 15.1046 15.1046 16 14 16H6C4.89543 16 4 15.1046 4 14V6ZM14 10C14 9.44772 13.5523 9 13 9H7C6.44772 9 6 9.44772 6 10V13C6 13.5523 6.44772 14 7 14H13C13.5523 14 14 13.5523 14 13V10Z" fill="white"/>
<path fill-rule="evenodd" clip-rule="evenodd" d="M4 6C4 4.89543 4.89543 4 6 4H14C14.5523 4 15 4.44772 15 5C15 5.55228 14.5523 6 14 6H6.5C6.22386 6 6 6.22386 6 6.5C6 6.77614 6.22386 7 6.5 7H14C15.1046 7 16 7.89543 16 9V14C16 15.1046 15.1046 16 14 16H6C4.89543 16 4 15.1046 4 14V6ZM14 10C14 9.44772 13.5523 9 13 9H7C6.44772 9 6 9.44772 6 10V13C6 13.5523 6.44772 14 7 14H13C13.5523 14 14 13.5523 14 13V10Z" fill="white"/>
</svg>
