<svg width="20" height="20" viewBox="0 0 20 20" fill="none" xmlns="http://www.w3.org/2000/svg">
<path d="M16.25 0H3.75C1.67893 0 0 1.67893 0 3.75V16.25C0 18.3211 1.67893 20 3.75 20H16.25C18.3211 20 20 18.3211 20 16.25V3.75C20 1.67893 18.3211 0 16.25 0Z" fill="#FBE7D1"/>
<path d="M16.7594 2.94751L10.8967 7.28432L11.9898 4.72774L16.7594 2.94751Z" fill="#E17726" stroke="#E17726" stroke-width="0.218751" stroke-linecap="round" stroke-linejoin="round"/>
<path d="M3.24042 2.94751L9.04957 7.32001L8.00999 4.7322L3.24042 2.94751ZM14.649 12.9998L13.0874 15.3824L16.4293 16.3015L17.3841 13.0533L14.649 12.9998ZM2.62024 13.0533L3.57059 16.3015L6.90349 15.3824L5.35081 12.9998L2.62024 13.0533Z" fill="#E27625" stroke="#E27625" stroke-width="0.218751" stroke-linecap="round" stroke-linejoin="round"/>
<path d="M6.72491 8.97567L5.79688 10.3767L9.09855 10.5284L8.99146 6.97235L6.72491 8.98013V8.97567ZM13.2747 8.98013L10.9725 6.92773L10.8966 10.5284L14.1983 10.3767L13.2747 8.98013ZM6.90338 15.3827L8.90669 14.419L7.18447 13.0805L6.90338 15.3827ZM11.0974 14.4145L13.0873 15.3827L12.8196 13.076L11.0974 14.4145Z" fill="#E27625" stroke="#E27625" stroke-width="0.218751" stroke-linecap="round" stroke-linejoin="round"/>
<path d="M13.0874 15.3824L11.0975 14.4187L11.2581 15.7126L11.2402 16.2614L13.0874 15.3824ZM6.90344 15.3824L8.75952 16.2614L8.74613 15.7126L8.90675 14.4187L6.90344 15.3824Z" fill="#D5BFB2" stroke="#D5BFB2" stroke-width="0.218751" stroke-linecap="round" stroke-linejoin="round"/>
<path d="M8.79036 12.219L7.13953 11.7371L8.3085 11.2017L8.79482 12.219H8.79036ZM11.2042 12.219L11.6949 11.1973L12.8684 11.7327L11.2042 12.2235V12.219Z" fill="#233447" stroke="#233447" stroke-width="0.218751" stroke-linecap="round" stroke-linejoin="round"/>
<path d="M6.90339 15.3825L7.1934 13L5.35071 13.0535L6.90339 15.3825ZM12.8062 13L13.0873 15.3825L14.6489 13.0535L12.8062 13ZM14.2028 10.3765L10.9011 10.5282L11.2045 12.2236L11.6953 11.1974L12.8687 11.7328L14.2028 10.3765ZM7.13986 11.7373L8.30883 11.2019L8.79515 12.2192L9.10301 10.5237L5.80134 10.3765L7.13986 11.7373Z" fill="#CC6228" stroke="#CC6228" stroke-width="0.218751" stroke-linecap="round" stroke-linejoin="round"/>
<path d="M5.80151 10.3765L7.18465 13.0758L7.14003 11.7373L5.80151 10.3765ZM12.8689 11.7373L12.8153 13.0758L14.1985 10.3765L12.8689 11.7373ZM9.10318 10.5282L8.79086 12.2236L9.1835 14.2225L9.27273 11.5856L9.10318 10.5282ZM10.8968 10.5282L10.7362 11.5811L10.8165 14.2225L11.2047 12.2192L10.8968 10.5237V10.5282Z" fill="#E27525" stroke="#E27525" stroke-width="0.218751" stroke-linecap="round" stroke-linejoin="round"/>
<path d="M11.2043 12.2192L10.8162 14.2225L11.0973 14.4188L12.815 13.0803L12.8686 11.7373L11.2043 12.2192ZM7.13972 11.7373L7.18433 13.0758L8.90656 14.4143L9.18318 14.2225L8.79501 12.2192L7.13525 11.7373H7.13972Z" fill="#F5841F" stroke="#F5841F" stroke-width="0.218751" stroke-linecap="round" stroke-linejoin="round"/>
<path d="M11.2443 16.2615L11.2577 15.7127L11.106 15.5878H8.893L8.74577 15.7127L8.75915 16.2615L6.90308 15.3826L7.55449 15.918L8.87069 16.8237H11.1239L12.4445 15.9135L13.087 15.3826L11.2399 16.2615H11.2443Z" fill="#C0AC9D" stroke="#C0AC9D" stroke-width="0.218751" stroke-linecap="round" stroke-linejoin="round"/>
<path d="M11.0975 14.4143L10.8165 14.2224H9.18346L8.90684 14.4187L8.74622 15.7126L8.89345 15.5877H11.1065L11.2582 15.7126L11.0975 14.4187V14.4143Z" fill="#161616" stroke="#161616" stroke-width="0.218751" stroke-linecap="round" stroke-linejoin="round"/>
<path d="M17.0093 7.5659L17.5 5.17887L16.7594 2.948L11.093 7.14203L13.2748 8.97581L16.3534 9.87261L17.0316 9.08289L16.7371 8.86872L17.2056 8.4404L16.8486 8.16377L17.3171 7.80683L17.0048 7.5659H17.0093ZM2.49976 5.17441L2.99947 7.5659L2.67822 7.80237L3.15563 8.15931L2.79869 8.4404L3.26271 8.86872L2.96824 9.08289L3.64642 9.87261L6.725 8.98027L8.90678 7.13757L3.2404 2.948L2.49976 5.17441Z" fill="#763E1A" stroke="#763E1A" stroke-width="0.218751" stroke-linecap="round" stroke-linejoin="round"/>
<path d="M16.3534 9.87241L13.2748 8.98006L14.2029 10.3766L12.8197 13.0759L14.649 13.0536H17.3841L16.3534 9.87241ZM6.72502 8.9756L3.64643 9.87241L2.62024 13.0536H5.35527L7.18458 13.0759L5.80144 10.3766L6.72948 8.9756H6.72502ZM10.8967 10.5283L11.0975 7.13737L11.9898 4.72803H8.00999L8.90234 7.13737L9.10312 10.5283L9.17896 11.5902V14.2226H10.8164L10.8253 11.5902L10.8967 10.5283Z" fill="#F5841F" stroke="#F5841F" stroke-width="0.218751" stroke-linecap="round" stroke-linejoin="round"/>
</svg>
