<svg width="20" height="20" viewBox="0 0 20 20" fill="none" xmlns="http://www.w3.org/2000/svg">
<g clip-path="url(#clip0_11836_58216)">
<path d="M16.25 0H3.75C1.67893 0 0 1.67893 0 3.75V16.25C0 18.3211 1.67893 20 3.75 20H16.25C18.3211 20 20 18.3211 20 16.25V3.75C20 1.67893 18.3211 0 16.25 0Z" fill="#AB9FF2"/>
<path d="M4.77204 16C6.68307 16 8.11922 14.4007 8.9763 13.137C8.87206 13.4166 8.81413 13.6962 8.81413 13.9646C8.81413 14.7027 9.25427 15.2283 10.1229 15.2283C11.3158 15.2283 12.5899 14.2218 13.25 13.137C13.2037 13.2936 13.1805 13.439 13.1805 13.5732C13.1805 14.0876 13.4817 14.4119 14.0955 14.4119C16.0297 14.4119 17.9755 11.1128 17.9755 8.22741C17.9755 5.9795 16.7941 4 13.8291 4C8.61726 4 3 10.1286 3 14.0876C3 15.6421 3.86865 16 4.77204 16ZM12.0339 7.98137C12.0339 7.42219 12.3582 7.03077 12.8331 7.03077C13.2963 7.03077 13.6207 7.42219 13.6207 7.98137C13.6207 8.54055 13.2963 8.94315 12.8331 8.94315C12.3582 8.94315 12.0339 8.54055 12.0339 7.98137ZM14.5125 7.98137C14.5125 7.42219 14.8368 7.03077 15.3116 7.03077C15.7749 7.03077 16.0992 7.42219 16.0992 7.98137C16.0992 8.54055 15.7749 8.94315 15.3116 8.94315C14.8368 8.94315 14.5125 8.54055 14.5125 7.98137Z" fill="#FFFDF8"/>
</g>
<defs>
<clipPath id="clip0_11836_58216">
<rect width="20" height="20" fill="white"/>
</clipPath>
</defs>
</svg>
