<svg width="20" height="20" viewBox="0 0 20 20" fill="none" xmlns="http://www.w3.org/2000/svg">
<g clip-path="url(#clip0_11391_39828)">
<path d="M16.25 0H3.75C1.67893 0 0 1.67893 0 3.75V16.25C0 18.3211 1.67893 20 3.75 20H16.25C18.3211 20 20 18.3211 20 16.25V3.75C20 1.67893 18.3211 0 16.25 0Z" fill="#7C7DF7"/>
<path d="M17.4233 10.7589C18.0125 9.36115 15.0999 5.45599 12.3174 3.82901C10.5636 2.56862 8.73602 2.74177 8.36586 3.29518C7.55358 4.50969 11.0556 5.5388 13.3977 6.73971C12.8943 6.97194 12.4198 7.38869 12.1408 7.92167C11.2677 6.90926 9.35124 6.03744 7.10245 6.73971C5.58707 7.21296 4.32766 8.32864 3.84091 10.0137C3.72263 9.95792 3.59168 9.92689 3.45392 9.92689C2.92708 9.92689 2.5 10.3805 2.5 10.94C2.5 11.4995 2.92708 11.9531 3.45392 11.9531C3.55157 11.9531 3.85689 11.8835 3.85689 11.8835L8.73602 11.9211C6.78473 15.2086 5.24269 15.6892 5.24269 16.2587C5.24269 16.8283 6.71816 16.6739 7.27215 16.4616C9.92425 15.4453 12.7727 12.278 13.2615 11.3662C15.3142 11.6382 17.0392 11.6703 17.4233 10.7589Z" fill="url(#paint0_linear_11391_39828)"/>
<path fill-rule="evenodd" clip-rule="evenodd" d="M13.3977 6.73971C13.5063 6.6943 13.4887 6.52436 13.4589 6.39064C13.3903 6.08328 12.2082 4.84352 11.0981 4.28823C9.58553 3.53164 8.47172 3.57057 8.30704 3.91924C8.61507 4.58997 10.0436 5.21968 11.5355 5.87738C12.1721 6.15796 12.8202 6.44359 13.3977 6.73971Z" fill="url(#paint1_linear_11391_39828)"/>
<path fill-rule="evenodd" clip-rule="evenodd" d="M11.4778 13.4901C11.1719 13.3659 10.8263 13.252 10.4335 13.1486C10.8523 12.3526 10.9402 11.1741 10.5446 10.429C9.98939 9.38332 9.29245 8.82675 7.6729 8.82675C6.78213 8.82675 4.38384 9.14541 4.34126 11.2717C4.3368 11.4947 4.34115 11.6992 4.35636 11.8872L8.73602 11.9211C8.14559 12.9158 7.59245 13.6535 7.10835 14.2145C7.68961 14.3726 8.16925 14.5054 8.60962 14.6273C9.02743 14.743 9.40992 14.8489 9.81017 14.9574C10.414 14.4901 10.9817 13.9807 11.4778 13.4901Z" fill="url(#paint2_linear_11391_39828)"/>
<path d="M3.78253 11.6688C3.96144 13.284 4.82577 13.9171 6.59197 14.1044C8.35818 14.2917 9.37127 14.1661 10.7201 14.2964C11.8466 14.4053 12.8524 15.0149 13.2256 14.8042C13.5614 14.6146 13.3735 13.9296 12.9241 13.4901C12.3417 12.9203 11.5355 12.5243 10.117 12.3837C10.3997 11.5617 10.3205 10.4091 9.88147 9.78206C9.24666 8.87535 8.07493 8.46544 6.59197 8.64453C5.0426 8.83166 3.558 9.64177 3.78253 11.6688Z" fill="url(#paint3_linear_11391_39828)"/>
</g>
<defs>
<linearGradient id="paint0_linear_11391_39828" x1="5.90133" y1="9.64699" x2="19.9929" y2="13.1032" gradientUnits="userSpaceOnUse">
<stop stop-color="white"/>
<stop offset="1" stop-color="white"/>
</linearGradient>
<linearGradient id="paint1_linear_11391_39828" x1="27.995" y1="36.8073" x2="-16.2141" y2="12.1288" gradientUnits="userSpaceOnUse">
<stop stop-color="#8697FF"/>
<stop offset="1" stop-color="#8697FF" stop-opacity="0"/>
</linearGradient>
<linearGradient id="paint2_linear_11391_39828" x1="20.5832" y1="16.1184" x2="-1.45047" y2="5.87421" gradientUnits="userSpaceOnUse">
<stop stop-color="#8697FF"/>
<stop offset="1" stop-color="#8697FF" stop-opacity="0"/>
</linearGradient>
<linearGradient id="paint3_linear_11391_39828" x1="7.54515" y1="9.43883" x2="12.7697" y2="15.6893" gradientUnits="userSpaceOnUse">
<stop stop-color="white"/>
<stop offset="0.983895" stop-color="#D1D8FF"/>
</linearGradient>
<clipPath id="clip0_11391_39828">
<rect width="20" height="20" fill="white"/>
</clipPath>
</defs>
</svg>
