<svg width="20" height="20" viewBox="0 0 20 20" fill="none" xmlns="http://www.w3.org/2000/svg">
<g clip-path="url(#clip0_11891_7263)">
<path d="M16.25 0H3.75C1.67893 0 0 1.67893 0 3.75V16.25C0 18.3211 1.67893 20 3.75 20H16.25C18.3211 20 20 18.3211 20 16.25V3.75C20 1.67893 18.3211 0 16.25 0Z" fill="url(#paint0_linear_11891_7263)"/>
<g clip-path="url(#clip1_11891_7263)">
<path d="M2 6.55L2 13.45C2 14.8583 3.21779 16 4.72 16H15.28C16.7822 16 18 14.8583 18 13.45V6.55C18 5.14167 16.7822 4 15.28 4H4.72C3.21779 4 2 5.14167 2 6.55Z" fill="#111111"/>
<path d="M2 6.55L2 13.45C2 14.8583 3.21779 16 4.72 16H15.28C16.7822 16 18 14.8583 18 13.45V6.55C18 5.14167 16.7822 4 15.28 4H4.72C3.21779 4 2 5.14167 2 6.55Z" fill="url(#paint1_linear_11891_7263)"/>
<path d="M6.00002 7C6.00002 6.58579 5.64185 6.25 5.20002 6.25C4.7582 6.25 4.40002 6.58579 4.40002 7C4.40002 7.41421 4.7582 7.75 5.20002 7.75C5.64185 7.75 6.00002 7.41421 6.00002 7Z" fill="url(#paint2_linear_11891_7263)"/>
<path d="M6.00002 7C6.00002 6.58579 5.64185 6.25 5.20002 6.25C4.7582 6.25 4.40002 6.58579 4.40002 7C4.40002 7.41421 4.7582 7.75 5.20002 7.75C5.64185 7.75 6.00002 7.41421 6.00002 7Z" fill="url(#paint3_linear_11891_7263)"/>
<path d="M6.00002 7C6.00002 6.58579 5.64185 6.25 5.20002 6.25C4.7582 6.25 4.40002 6.58579 4.40002 7C4.40002 7.41421 4.7582 7.75 5.20002 7.75C5.64185 7.75 6.00002 7.41421 6.00002 7Z" fill="url(#paint4_linear_11891_7263)"/>
<path d="M6.00002 12.9954C6.00002 12.5811 5.64185 12.2454 5.20002 12.2454C4.7582 12.2454 4.40002 12.5811 4.40002 12.9954C4.40002 13.4096 4.7582 13.7454 5.20002 13.7454C5.64185 13.7454 6.00002 13.4096 6.00002 12.9954Z" fill="url(#paint5_linear_11891_7263)"/>
<path d="M15.6 10C15.6 9.58579 15.2418 9.25 14.8 9.25C14.3582 9.25 14 9.58579 14 10C14 10.4142 14.3582 10.75 14.8 10.75C15.2418 10.75 15.6 10.4142 15.6 10Z" fill="url(#paint6_linear_11891_7263)"/>
<path d="M15.6 10C15.6 9.58579 15.2418 9.25 14.8 9.25C14.3582 9.25 14 9.58579 14 10C14 10.4142 14.3582 10.75 14.8 10.75C15.2418 10.75 15.6 10.4142 15.6 10Z" fill="url(#paint7_linear_11891_7263)"/>
<path d="M14.8 6.25H8.39998C7.95815 6.25 7.59998 6.58579 7.59998 7C7.59998 7.41421 7.95815 7.75 8.39998 7.75H14.8C15.2418 7.75 15.6 7.41421 15.6 7C15.6 6.58579 15.2418 6.25 14.8 6.25Z" fill="url(#paint8_linear_11891_7263)"/>
<path d="M14.8 12.2454H8.39998C7.95815 12.2454 7.59998 12.5811 7.59998 12.9954C7.59998 13.4096 7.95815 13.7454 8.39998 13.7454H14.8C15.2418 13.7454 15.6 13.4096 15.6 12.9954C15.6 12.5811 15.2418 12.2454 14.8 12.2454Z" fill="url(#paint9_linear_11891_7263)"/>
<path d="M11.6 9.25H5.20002C4.7582 9.25 4.40002 9.58579 4.40002 10C4.40002 10.4142 4.7582 10.75 5.20002 10.75H11.6C12.0419 10.75 12.4 10.4142 12.4 10C12.4 9.58579 12.0419 9.25 11.6 9.25Z" fill="url(#paint10_linear_11891_7263)"/>
</g>
</g>
<defs>
<linearGradient id="paint0_linear_11891_7263" x1="20" y1="10" x2="0" y2="10" gradientUnits="userSpaceOnUse">
<stop stop-color="#7537F9"/>
<stop offset="1" stop-color="#5826FF"/>
</linearGradient>
<linearGradient id="paint1_linear_11891_7263" x1="10" y1="4" x2="10" y2="16.0125" gradientUnits="userSpaceOnUse">
<stop stop-color="#1D273D"/>
<stop offset="1" stop-color="#0D0F13"/>
</linearGradient>
<linearGradient id="paint2_linear_11891_7263" x1="4.64649" y1="7.73973" x2="5.64533" y2="6.31526" gradientUnits="userSpaceOnUse">
<stop stop-color="#4462FE"/>
<stop offset="1" stop-color="#7D69FA"/>
</linearGradient>
<linearGradient id="paint3_linear_11891_7263" x1="4.54063" y1="7.75073" x2="5.88388" y2="7.67728" gradientUnits="userSpaceOnUse">
<stop stop-color="#3757FD"/>
<stop offset="1" stop-color="#6980FA"/>
</linearGradient>
<linearGradient id="paint4_linear_11891_7263" x1="4.54063" y1="7.75073" x2="5.88388" y2="7.67728" gradientUnits="userSpaceOnUse">
<stop stop-color="#2447FF"/>
<stop offset="1" stop-color="#6980FA"/>
</linearGradient>
<linearGradient id="paint5_linear_11891_7263" x1="4.62629" y1="13.5006" x2="5.62139" y2="12.3759" gradientUnits="userSpaceOnUse">
<stop stop-color="#BC3EE6"/>
<stop offset="1" stop-color="#D972F1"/>
</linearGradient>
<linearGradient id="paint6_linear_11891_7263" x1="14.3232" y1="10.4973" x2="15.243" y2="9.45333" gradientUnits="userSpaceOnUse">
<stop stop-color="#29BDFF"/>
<stop offset="1" stop-color="#96E7FB"/>
</linearGradient>
<linearGradient id="paint7_linear_11891_7263" x1="14.1285" y1="10.7397" x2="15.5174" y2="10.6686" gradientUnits="userSpaceOnUse">
<stop stop-color="#23BBFF"/>
<stop offset="1" stop-color="#85E7FF"/>
</linearGradient>
<linearGradient id="paint8_linear_11891_7263" x1="8.2424" y1="7.73973" x2="14.7773" y2="6.06734" gradientUnits="userSpaceOnUse">
<stop stop-color="#23BBFF"/>
<stop offset="1" stop-color="#85E7FF"/>
</linearGradient>
<linearGradient id="paint9_linear_11891_7263" x1="8.303" y1="13.7461" x2="14.5709" y2="12.0326" gradientUnits="userSpaceOnUse">
<stop stop-color="#2447FF"/>
<stop offset="1" stop-color="#6980FA"/>
</linearGradient>
<linearGradient id="paint10_linear_11891_7263" x1="5.47478" y1="10.7617" x2="11.4576" y2="9.04956" gradientUnits="userSpaceOnUse">
<stop stop-color="#6634FF"/>
<stop offset="1" stop-color="#9C6DFF"/>
</linearGradient>
<clipPath id="clip0_11891_7263">
<rect width="20" height="20" fill="white"/>
</clipPath>
<clipPath id="clip1_11891_7263">
<rect width="16" height="12" fill="white" transform="translate(2 4)"/>
</clipPath>
</defs>
</svg>
