<svg width="20" height="20" viewBox="0 0 20 20" fill="none" xmlns="http://www.w3.org/2000/svg">
<path d="M16.25 0H3.75C1.67893 0 0 1.67893 0 3.75V16.25C0 18.3211 1.67893 20 3.75 20H16.25C18.3211 20 20 18.3211 20 16.25V3.75C20 1.67893 18.3211 0 16.25 0Z" fill="#006FFF"/>
<path d="M6.45808 7.56373C8.41316 5.47876 11.5868 5.47876 13.5419 7.56373L13.7773 7.81658C13.876 7.92021 13.876 8.09015 13.7773 8.19378L12.9725 9.05181C12.9231 9.1057 12.8434 9.1057 12.7941 9.05181L12.4714 8.70777C11.1047 7.25285 8.89529 7.25285 7.52863 8.70777L7.18317 9.07668C7.13382 9.13057 7.0541 9.13057 7.00475 9.07668L6.19994 8.21865C6.10123 8.11503 6.10123 7.94508 6.19994 7.84145L6.45808 7.56373ZM15.2085 9.33782L15.926 10.1005C16.0247 10.2041 16.0247 10.3741 15.926 10.4777L12.6953 13.9223C12.5966 14.0259 12.4372 14.0259 12.3423 13.9223L10.0494 11.4767C10.0266 11.4518 9.98481 11.4518 9.96204 11.4767L7.66909 13.9223C7.57039 14.0259 7.41095 14.0259 7.31604 13.9223L4.07403 10.4777C3.97532 10.3741 3.97532 10.2041 4.07403 10.1005L4.79152 9.33782C4.89022 9.2342 5.04967 9.2342 5.14457 9.33782L7.43752 11.7834C7.4603 11.8083 7.50206 11.8083 7.52483 11.7834L9.81778 9.33782C9.91648 9.2342 10.0759 9.2342 10.1708 9.33782L12.4638 11.7834C12.4866 11.8083 12.5283 11.8083 12.5511 11.7834L14.844 9.33782C14.9503 9.2342 15.1098 9.2342 15.2085 9.33782Z" fill="white"/>
</svg>
